# xmcd
#
# Track frame offsets:
#	150
#	12996
#	24497
#	38269
#	48801
#	60870
#	73753
#	90142
#	99917
#	111624
#	124181
#	138340
#	150935
#	162631
#	173238
#	181880
#	193597
#	204849
#	211879
#	226364
#	237538
#	250499
#	262049
#	274054
#	285327
#
# Disc length: 3993 seconds
#
# Revision: 0
# Processed by: cddbd v1.5.1PL0 Copyright (c) Steve Scherf et al.
# Submitted via: audiograbber 1.83.01
#
DISCID=4e0f9719
DTITLE=Various Artist - 100 Conuntry Greats
DYEAR=1900
DGENRE=Country
TTITLE0=1.   Rose Garden   -   Lynn Anderson
TTITLE1=2.   A House Without Love Is Not A Home   -   George Jones
TTITLE2=3.   I'm Gonna Sing You A Sad Song Susie   -   Kenny Rogers
TTITLE3=4.   Dream  Baby   -   Waylon Jennings
TTITLE4=5.   Look What They've Done To My Song   -   Billie Jo Spears
TTITLE5=6.   Any Old Arms Won't Do   -   Willie Nelson
TTITLE6=7.   The Three Bells   -   Slim Whitman
TTITLE7=8.   16 Tons   -   Merle Travis
TTITLE8=9.   You Can't Put The City In The Country Girl   -   Barbara Fairchild
TTITLE9=10. The Shelter Of His Arms   -   The Oakridge Boys
TTITLE10=11. Things Have Gone To Pieces   -   George Jones
TTITLE11=12. Stand  By Your Man   -   Lynn Anderson
TTITLE12=13. Strange Lady In Town
TTITLE13=14. Have I Stayed Away Too Long   -   Tex Ritter
TTITLE14=15. Jolie Blond   -   Waylon Jennings
TTITLE15=16. I've Loved  and  Lost Again   -   Patsy Cline  
TTITLE16=17. The Last Thing On My Mind   -   Ann Murray
TTITLE17=18. Both Ends Of The Candle    -   Willie Nelson
TTITLE18=19. I'll Never Be Free   -   Billie Jo Spears
TTITLE19=20. Singin' The Blues   -   Slim Whitman
TTITLE20=21. Top Of The World   -   Lynn Anderson
TTITLE21=22. A Poem For My Little Lady   -   Kenny Rogers
TTITLE22=23. Tarnished Angel   -   George Jones
TTITLE23=24. Just Out Of Reach   -   Patsy Cline
TTITLE24=25. Don't Fence Me In   -   Frankie Laine
EXTD=
EXTT0=
EXTT1=
EXTT2=
EXTT3=
EXTT4=
EXTT5=
EXTT6=
EXTT7=
EXTT8=
EXTT9=
EXTT10=
EXTT11=
EXTT12=
EXTT13=
EXTT14=
EXTT15=
EXTT16=
EXTT17=
EXTT18=
EXTT19=
EXTT20=
EXTT21=
EXTT22=
EXTT23=
EXTT24=
PLAYORDER=
